<svg width="32" height="32" viewBox="0 0 32 32" fill="none" xmlns="http://www.w3.org/2000/svg">
    <path d="M9.92367 7.13379C10.7757 7.13379 11.5637 7.20046 12.2837 7.39779C13.005 7.52979 13.5957 7.79379 14.1197 8.12312C14.645 8.45246 15.0383 8.91512 15.2997 9.50846C15.5623 10.1018 15.6943 10.8285 15.6943 11.6191C15.6943 12.5431 15.497 13.3338 15.0383 13.9271C14.645 14.5218 13.989 15.0485 13.2023 15.4445C14.317 15.7751 15.169 16.3685 15.6943 17.1591C16.2183 17.9511 16.5463 18.9405 16.5463 20.0618C16.5463 20.9858 16.349 21.7765 16.021 22.4365C15.6943 23.0965 15.169 23.6898 14.5783 24.0858C13.9367 24.5103 13.2275 24.8223 12.481 25.0085C11.6943 25.2071 10.9077 25.3391 10.121 25.3391H1.33301V7.13379H9.92367ZM9.39834 14.5205C10.1197 14.5205 10.7103 14.3231 11.169 13.9938C11.6277 13.6645 11.825 13.0698 11.825 12.3445C11.825 11.9485 11.7583 11.5525 11.6277 11.2898C11.497 11.0258 11.2997 10.8271 11.0383 10.6298C10.771 10.48 10.4837 10.3691 10.185 10.3005C9.85701 10.2338 9.53034 10.2338 9.13567 10.2338H5.33301V14.5218L9.39834 14.5205ZM9.59567 22.3045C9.98901 22.3045 10.3823 22.2378 10.7103 22.1725C11.0383 22.1058 11.3663 21.9751 11.6277 21.7765C11.8949 21.5834 12.1184 21.3363 12.2837 21.0511C12.4143 20.7218 12.5463 20.3258 12.5463 19.8645C12.5463 18.9405 12.2837 18.2805 11.7597 17.8191C11.2343 17.4231 10.513 17.2258 9.66101 17.2258H5.33301V22.3058L9.59567 22.3045ZM22.2517 22.2378C22.7757 22.7658 23.5623 23.0298 24.6117 23.0298C25.333 23.0298 25.989 22.8325 26.513 22.5031C27.0383 22.1071 27.3663 21.7111 27.497 21.3151H30.7103C30.185 22.8978 29.3983 24.0191 28.3503 24.7445C27.2997 25.4045 26.0543 25.8005 24.5463 25.8005C23.5815 25.8034 22.6248 25.6243 21.7263 25.2725C20.9179 24.9693 20.197 24.4709 19.6277 23.8218C19.0187 23.2146 18.5686 22.4668 18.317 21.6445C17.989 20.7871 17.857 19.8645 17.857 18.8085C17.857 17.8191 17.989 16.8965 18.317 16.0378C18.6328 15.2111 19.0999 14.4506 19.6943 13.7951C20.2837 13.2018 21.005 12.6751 21.7917 12.3445C22.6673 11.9925 23.6027 11.8132 24.5463 11.8165C25.661 11.8165 26.645 12.0151 27.497 12.4765C28.3503 12.9378 29.005 13.4658 29.529 14.2578C30.0543 14.9831 30.449 15.8405 30.7103 16.7645C30.841 17.6871 30.9063 18.6111 30.841 19.6658H21.333C21.333 20.7218 21.7263 21.7111 22.2517 22.2391M26.3823 15.3138C25.9237 14.8525 25.2023 14.5885 24.349 14.5885C23.8487 14.581 23.3539 14.6939 22.9063 14.9178C22.513 15.1165 22.2517 15.3805 21.989 15.6445C21.7476 15.8995 21.5879 16.2207 21.5303 16.5671C21.4637 16.8978 21.3983 17.1605 21.3983 17.4245H27.2997C27.169 16.4351 26.841 15.7765 26.3823 15.3138ZM20.6117 8.38712H27.9557V10.1685H20.613L20.6117 8.38712Z" fill="#DDFE07"/>
</svg>
