<svg width="412" height="362" viewBox="0 0 399 362" fill="none" xmlns="http://www.w3.org/2000/svg">
    <path d="M403.636 63.032C403.636 97.8435 375.415 126.064 340.604 126.064C305.792 126.064 277.572 97.8435 277.572 63.032C277.572 28.2204 305.792 0 340.604 0C375.415 0 403.636 28.2204 403.636 63.032ZM293.848 63.032C293.848 88.8544 314.781 109.788 340.604 109.788C366.426 109.788 387.359 88.8544 387.359 63.032C387.359 37.2095 366.426 16.2762 340.604 16.2762C314.781 16.2762 293.848 37.2095 293.848 63.032Z" fill="#5C651C"/>
    <circle cx="269.187" cy="284.8" r="114.788" fill="#DDFE07"/>
    <circle cx="16.1916" cy="21.9743" r="4.6262" fill="#C9E41A"/>
    <path d="M11.1586 2.9164L11.3962 13.4305L2.1719 8.37918L11.1586 2.9164Z" fill="#C9E41A"/>
</svg>
