<svg width="24" height="24" viewBox="0 0 24 24" fill="none" xmlns="http://www.w3.org/2000/svg">
    <rect width="24" height="24" rx="12" fill="#DDFE07"/>
    <path d="M10.0625 10.1484V11H6.49609V5.36328H7.50391V10.1484H10.0625ZM16.6016 11H15.6953V7H15.668L14.0391 10.9531H13.3516L11.7227 7H11.6953V11H10.7852V5.36328H11.9531L13.6797 9.61719H13.7109L15.4375 5.36328H16.6016V11Z" fill="black"/>
    <path d="M11.75 19H10.7461V16.5547H8.00391V19H6.99609V13.3633H8.00391V15.707H10.7461V13.3633H11.75V19ZM13.7539 19H12.7461V13.3633H13.7539V16H13.7891L16.0391 13.3633H17.1992L15.0273 15.8633L17.3672 19H16.1406L14.3086 16.5391L13.7539 17.1875V19Z" fill="black"/>
</svg>
